<svg version="1" xmlns="http://www.w3.org/2000/svg" width="1365.333" height="1365.333" viewBox="0 0 1024.000000 1024.000000"><path d="M489.8 52.5c-.2.1-3.9.6-8.3.9-9.6.8-15.5 1.5-17.5 2.1-.8.3-3.3.7-5.5 1-13.4 2-37.7 9.3-56.7 17.2-11.2 4.7-36.1 17.4-37.8 19.4-.3.3-1.2.9-2 1.3-5.2 2.4-20.4 13.3-33 23.5-24.5 19.8-49.2 48.7-63.6 74.3-5.2 9.3-14.4 28.1-14.4 29.5 0 2.2-2.1 2.5-17.3 2.7-8.4.2-17 .8-19.2 1.4-7.6 2.2-14.8 9.4-17.6 17.7-1.8 5.4-2.1 181.2-.4 189 1.5 6.6 3.6 10.3 7.8 14.2 7.3 6.6 12.8 7.9 32.5 7.8 7.2 0 13.2.3 13.2.8 0 2.2 16.5 33.5 22.5 42.7 15.9 24.5 35.1 45.7 58.5 64.6 4.1 3.3 8.9 6.9 10.5 8 1.7 1 3.2 2.1 3.5 2.4 2.1 2.2 15.2 10.8 25 16.3 38.3 21.6 72.7 32.4 115.5 36.4 10.6.9 45.3.9 54 0 3.3-.4 7.8-.9 10-1.2 2.2-.2 5.6-.6 7.5-1 1.9-.3 4.9-.8 6.5-1.1 24.3-3.8 56.3-14.7 79.3-27 9.3-5 27.7-16.1 32.7-19.7 1.7-1.2 5.5-4 8.5-6.2 3-2.1 5.7-4.2 6-4.5.3-.3 3-2.5 6-5 11.1-9 22.2-19.8 31.6-30.5 7.6-8.7 18.4-22.7 20.2-26.2.7-1.2 1.8-2.7 2.5-3.5 2.8-2.8 11.7-18.9 17.7-31.8 7-14.9 4.4-13.4 22.7-13.6 14-.1 16.4-.4 20.8-2.3 6.9-3 14.2-10.4 14.6-14.8.1-.5.6-1.7 1.2-2.8 1.3-2.3 1.8-180.2.5-187.3-1.6-9.2-7.5-16.8-15.7-20.4-3.8-1.7-7.1-2.1-20.1-2.4-8.5-.1-16-.3-16.6-.3-.5-.1-3-4.3-5.3-9.4-5.9-12.5-13.1-25.1-20.9-36.6-5.7-8.4-12.6-17.6-14.3-19.1-.3-.3-1.3-1.6-2.2-2.9-4.1-6.1-22.6-25.3-34.7-36-5.4-4.9-25.9-20.3-32-24.1-12.1-7.7-33.4-18.6-44-22.5-.3-.1-1.8-.7-3.5-1.4-17.2-7.2-51.1-16-67.8-17.7-2.9-.3-7.5-.9-10.4-1.3-4.8-.7-49.7-1.3-50.5-.6zM661 225.9c28.7 5.8 53.3 24.1 62 46 4.2 10.9 4.8 17.2 4.5 54.1-.1 18.6-.4 34.1-.7 34.6-.3.5-.9 3.6-1.3 6.9-.8 7.7-4.8 23.4-8.2 32.7-2.9 7.9-12.6 27.3-14.9 29.9-.8.8-1.4 1.9-1.4 2.3 0 1.3-12.1 16.8-18.6 23.9-6.2 6.7-15.1 15-20.9 19.5-13.3 10.1-16.1 11.8-27.8 17.7-3.7 1.8-7.3 3.7-8 4.2-1.5 1.2-21.5 7.7-28.2 9.3-7.9 1.9-7 1.7-22.5 3.9-7.3 1.1-124.6.8-130-.3-1.9-.3-7.1-1.4-11.5-2.2-4.4-.9-8.7-1.7-9.5-1.9-5.3-1.1-22.1-7.1-28.2-10.1-11-5.3-22.6-12.2-28.7-17-15.4-12.3-27.1-23.6-34.6-33.9-1.7-2.2-3.8-4.9-4.7-5.9-1-1.1-1.8-2.3-1.8-2.7 0-.4-.6-1.4-1.3-2.1-3.4-3.5-14.2-24.3-18.2-35.2-7.8-21.2-9.6-35-10-74.7-.3-36.4.2-42.1 4.4-52.8 7.3-18.4 26.5-35 49.6-42.9 5-1.7 11.7-3.1 22.5-4.6.8-.1 64.5-.2 141.5-.1 111.7.1 141.3.4 146.5 1.4z"/><path d="M422.9 261.2c-1.2 4-2.3 7.5-2.4 7.8-.1.3-.4 1.2-.8 2-.3.8-1.6 4.6-2.8 8.5-1.2 3.8-2.7 7.6-3.2 8.2-.5.7-.7 1.3-.3 1.3.3 0-.8 3.7-2.5 8.2-1.7 4.6-3.2 9.3-3.5 10.5-.7 3.6-4.3 11.3-5.1 11.1-.4-.1-3.5.7-6.8 1.7-3.3 1.1-6.2 2-6.5 2-.3.1-1.4.5-2.5.9-1.1.5-2.4.9-3 1.1-4.1 1.1-42.6 14.2-43 14.6-.2.2 13.6 5.1 30.7 10.8 17 5.8 31.6 11.1 32.4 11.8.7.7 2.5 5.3 4 10.1s3.2 9.3 3.8 10.1c.6.8.9 1.5.6 1.5-.3.1 2.6 9.5 6.5 20.8 3.8 11.4 7.1 20.5 7.4 20.2.2-.2 5.2-14.6 11-32l10.6-31.6 32.3-10.8 32.3-10.8-32.4-10.7-32.5-10.8-1.3-4.1c-.7-2.3-1.5-4.6-1.8-5.1-.3-.6-.6-1.5-.7-2-.4-2.4-16.8-51.1-17.4-51.8-.4-.5-1.8 2.4-3.1 6.5zM317 630.1c-1.9.5-5.5 1-8 1.3-2.5.4-6.3 1.1-8.5 1.6-2.2.6-5.1 1.3-6.5 1.6-1.4.3-3.3.7-4.2 1-.9.3-2.5.7-3.5.9-3.7.7-23.2 7.5-28.7 9.9-3.1 1.4-5.9 2.5-6.1 2.5-1.5.1-21.6 10.9-23.6 12.7-.8.8-1.8 1.4-2.2 1.4-.8 0-11 6.3-12.2 7.6-.5.6-3.5 2.8-6.5 4.9-3 2.2-6.4 4.7-7.5 5.6-12.7 11-23.1 21.3-31.8 31.3-3.3 3.9-6.6 7.6-7.1 8.3-3.7 4.2-12.6 16.8-17.8 25.3-4 6.6-14.8 27.9-16.9 33.5-.4 1.1-1.1 2.9-1.5 4-.4 1.1-.8 2.2-.9 2.5-.1.3-.5 1.2-.8 2-3.7 8.5-9.7 34.1-11.2 47.5-.4 3.3-.9 7.3-1.2 9-.9 5.8-1 49.7-.1 54.3.5 2.6 1.1 5.9 1.3 7.4.9 5.1 5.6 16.9 9.2 22.9 3.9 6.8 11.5 16.4 15.1 19.3 1.3 1.1 3.2 2.7 4.1 3.6 7.5 7.6 25.8 16.6 37.5 18.4 2.1.4 5 .9 6.4 1.3 3.8.9 154.3.9 154.9 0 .3-.5.5-27.5.6-60 0-70.4.1-71.1 9.9-85.9 9.2-13.8 25.1-23.7 40.9-25.4 8.1-.9 235.3-.9 243.4 0 9.1.9 16.5 3.5 23.5 8.1 6.3 4.1 15.7 13.3 17.2 16.7.7 1.5 1.6 2.8 2 2.8.8 0 5.6 10.4 6.4 13.9.3 1.4.8 4.4 1.2 6.6.4 2.2.7 31 .7 64v60l75-.1c79.1-.1 85.1-.4 93.2-3.5 1.6-.6 3.7-1.3 4.7-1.5 2.5-.5 16.1-6.9 17.8-8.4.7-.6 2.7-2.1 4.5-3.3 15.6-11.2 30.4-33.8 32.9-50.5.3-2.1.9-5.4 1.4-7.4.8-3.9.5-49.4-.4-53.8-.3-1.4-.8-5.1-1.1-8.4-.7-6.8-3.1-20.5-4.5-25.6-3.8-13.9-12.4-38.6-13.9-40-.4-.3-2.7-4.8-5.3-10-17.6-35.2-53.7-74.8-86.1-94.6-2.7-1.6-6.3-3.8-8-4.8-6.7-4.1-25.5-13.3-32.2-15.8-9.7-3.6-22-7.8-24.5-8.3-1.1-.3-3-.7-4.2-1-1.3-.3-5.1-1.2-8.5-2-3.5-.9-8-1.8-10-2.1-2.1-.2-6.4-.9-9.6-1.4-6.7-1.1-6.9-1-19.2 6.4-7.6 4.6-35 18.9-36.5 19.1-.3 0-4 1.5-8.3 3.3-8.2 3.5-35.7 13.3-35.7 12.8 0-.2-3 .5-6.7 1.6-3.8 1.1-7.9 2.1-9.3 2.4-1.4.3-4.1.9-6 1.4-2 .5-5.1 1.2-7 1.4-1.9.3-5.5.9-8 1.5-2.5.5-7.2 1.3-10.5 1.6-3.3.4-7 .8-8.2 1-15 2.4-57.9 2.4-76.8 0-1.6-.2-5.2-.6-8-1-15.9-1.9-43.7-8.5-62-14.7-22.1-7.5-47.3-19.1-68.3-31.6-10.3-6.1-11.5-6.5-18.2-5.1z"/><path d="M415.8 859c-8.8 2.7-12.1 5.3-15.4 11.7l-2.9 5.8-.3 47.7c-.2 26.3.1 47.8.5 47.9 6.5.7 55.6.2 56.2-.6 1-1.4.7-89.1-.3-93.5-1.1-4.4-5.9-11.7-9.8-14.9-6.7-5.4-18.5-7.1-28-4.1zM589.4 858.6c-9.6 2.4-14.3 6.5-17.8 15.3-2.7 6.9-2.4 19.5.7 25.4 10.7 20.4 42.3 20.2 52-.3 2.9-6.2 3-19.7.2-25.5-6.1-12.7-20.3-18.7-35.1-14.9z"/></svg>